<?xml version="1.0" encoding="utf-8"?><svg viewBox="0 0 50 50" xmlns="http://www.w3.org/2000/svg" xmlns:xlink="http://www.w3.org/1999/xlink"><style>:root>svg{display:none}:root>svg:target{display:block}</style><svg viewBox="0 0 13 13" id="arrow-down" xmlns="http://www.w3.org/2000/svg"><path d="M11.917 4.333L6.5 9.75 1.083 4.333l.962-.961L6.5 7.827l4.455-4.455.962.961z"/></svg><svg viewBox="0 0 22 20" id="attach" xmlns="http://www.w3.org/2000/svg"><path d="M16.446 19.448c-1.406 0-2.863-.686-4.229-2.051L1.672 6.825A4.18 4.18 0 01.577 4.711c-.14-.787-.075-1.958 1.03-3.063C2.74.514 3.868.414 4.615.53c1.078.168 1.854.845 2.137 1.129l10.592 10.617c.29.29.971.97.971 1.892 0 .562-.248 1.094-.737 1.583-.437.438-1.637 1.277-3.316-.4L3.687 4.787a.6.6 0 11.848-.85L15.11 14.503c1.012 1.01 1.455.566 1.62.4.257-.256.387-.503.387-.735 0-.424-.42-.842-.62-1.043L5.903 2.506c-.2-.2-.744-.677-1.472-.79-.686-.107-1.352.156-1.976.78-.594.594-.828 1.268-.697 2.005.114.641.482 1.195.763 1.476l10.544 10.572c1.21 1.208 3.6 2.877 6.006.471 1.103-1.103 1.446-2.256 1.05-3.525-.247-.794-.794-1.629-1.58-2.415L9.338 1.92a.6.6 0 11.847-.85l9.202 9.16c.925.924 1.574 1.93 1.88 2.908.366 1.176.43 2.952-1.349 4.731-1.055 1.055-2.245 1.58-3.473 1.58z"/></svg><svg viewBox="0 0 50 50" id="cross" xmlns="http://www.w3.org/2000/svg"><path d="M7.719 6.281L6.28 7.72 23.563 25 6.28 42.281 7.72 43.72 25 26.437 42.281 43.72l1.438-1.438L26.437 25 43.72 7.719 42.28 6.28 25 23.563z"/></svg><svg viewBox="0 0 25 25" id="feedback" xmlns="http://www.w3.org/2000/svg"><path d="M20.675 4.4l.642-1.983a1.201 1.201 0 00-.4-1.325 1.184 1.184 0 00-1.359-.084l-5.5 3.392H3.333v14.767h18.334V4.4h-.992zM20 17.5H5V6.067h9.533L19.342 3.1l-.959 2.967H20V17.5z"/><path d="M7.833 10.833a1.166 1.166 0 100 2.332 1.166 1.166 0 000-2.332zM12.5 10.833a1.166 1.166 0 100 2.333 1.166 1.166 0 000-2.333zM17.167 10.833a1.167 1.167 0 100 2.334 1.167 1.167 0 000-2.334z"/></svg><svg viewBox="0 0 28 28" id="instruction" xmlns="http://www.w3.org/2000/svg"><path d="M7.18 6.08h6.196a.656.656 0 100-1.313H7.179a.656.656 0 000 1.312zM7.18 8.453h9.994a.656.656 0 000-1.312H7.179a.656.656 0 100 1.312zM7.18 10.827h9.994a.656.656 0 100-1.313H7.179a.656.656 0 000 1.313zM7.18 13.2h9.994a.657.657 0 000-1.312H7.179a.656.656 0 100 1.313zM19.386 17.28a.656.656 0 00-.656.655v1.675a.657.657 0 001.312 0v-1.674a.656.656 0 00-.656-.657zM19.386 15.566a.656.656 0 00-.656.657v.26a.656.656 0 001.312 0v-.26a.656.656 0 00-.656-.657z"/><path d="M19.729 13.94V1.15a.656.656 0 00-.656-.656H5.28a.656.656 0 00-.656.656v16.203c0 .172.067.337.188.46l2.86 2.91a.656.656 0 00.469.195h8.62a3.99 3.99 0 102.968-6.977zM18.416 1.807v12.24a3.99 3.99 0 00-2.644 5.56H8.797v-2.253a.655.655 0 00-.656-.656H5.936V1.807h12.48zM7.485 18.66l-.64-.65h.64v.65zm11.901 1.934a2.678 2.678 0 110-5.356 2.678 2.678 0 010 5.357z"/></svg><svg viewBox="0 0 14 19" id="location" xmlns="http://www.w3.org/2000/svg"><path d="M7 .96A6.047 6.047 0 00.952 7.008c0 1.305.422 2.803 1.133 3.801L7 18.24l4.915-7.43c.71-.998 1.133-2.476 1.133-3.801A6.047 6.047 0 007 .96zm0 8.352a2.31 2.31 0 01-2.304-2.304A2.31 2.31 0 017 4.704a2.31 2.31 0 012.304 2.304A2.31 2.31 0 017 9.312z"/></svg><svg viewBox="0 0 21 17" id="metro" xmlns="http://www.w3.org/2000/svg"><path d="M13.913 4.22l-3.348 6.913L7.26 4.22l-2.743 8.337H4.04v.929h2.787v-.886h-.432l1.36-3.736 2.463 4.622h.67l2.462-4.666 1.383 3.737h-.497v.929h2.851v-.929h-.497l-2.678-8.337z"/><path d="M10.5.592a9.672 9.672 0 00-6.912 2.894C1.774 5.344.78 7.785.801 10.355c0 2.246.8 4.45 2.247 6.2a.389.389 0 00.324.15h2.851c2.182 0 4.99.022 7.322.022 1.901 0 3.5 0 4.212-.021a.41.41 0 00.324-.173 9.82 9.82 0 002.182-6.2c0-5.356-4.385-9.741-9.763-9.741zm7.02 15.25c-1.858.043-7.754.021-11.318 0H3.566a8.86 8.86 0 01.648-11.75C5.9 2.405 8.124 1.455 10.5 1.455c4.903 0 8.9 3.996 8.9 8.899 0 2.009-.649 3.91-1.88 5.486z"/></svg><svg viewBox="0 0 28 28" id="out" xmlns="http://www.w3.org/2000/svg"><path d="M20.263 14.663a.933.933 0 01-1.316-1.316l1.204-1.214h-9.884a.933.933 0 110-1.866h9.884l-1.213-1.204a.937.937 0 011.325-1.326l2.8 2.8a.933.933 0 010 1.316l-2.8 2.81z"/><path d="M16.8 15.867a.933.933 0 01.933.933v2.8a.933.933 0 01-.933.933H5.6a.933.933 0 01-.933-.933V2.8a.933.933 0 01.933-.933h11.2a.933.933 0 01.933.933v2.8a.933.933 0 11-1.866 0V3.733H6.533v14.934h9.334V16.8a.933.933 0 01.933-.933z"/></svg><svg viewBox="0 0 22 22" id="pencil" xmlns="http://www.w3.org/2000/svg"><g clip-path="url(#iclip0_701_24)"><path d="M16.531 0L2.625 13.906 0 22l8.094-2.625L22 5.469l-5.469-5.47zm3.646 5.469l-1.823 1.823-3.646-3.646 1.823-1.823 3.646 3.646zM3.479 15.452l3.069 3.069-1.377.447-2.139-2.14.447-1.376zm.623-1.2l9.694-9.695 1.368 1.368-9.695 9.694-1.367-1.367zm2.279 2.279l9.694-9.695 1.367 1.367-9.694 9.695-1.367-1.367zm-3.795 1.674l1.209 1.209-1.79.58.581-1.789z"/></g><defs><clipPath id="iclip0_701_24"><path d="M0 0h22v22H0z"/></clipPath></defs></svg><svg viewBox="0 0 17 18" id="phone" xmlns="http://www.w3.org/2000/svg"><path d="M11.688 15.75c-5.273 0-9.563-4.542-9.563-10.125a4.088 4.088 0 01.93-2.601 3.675 3.675 0 012.317-1.308c.229-.027.46.024.659.145.2.121.357.307.45.53l1.335 3.297a1.177 1.177 0 01-.093 1.062L6.621 8.536a5.237 5.237 0 002.337 2.46l1.667-1.173a.985.985 0 011.003-.091l3.114 1.405c.21.099.386.266.5.477.115.211.163.456.138.698a4.027 4.027 0 01-1.236 2.454 3.615 3.615 0 01-2.457.984zM5.505 2.834c-.64.087-1.23.418-1.656.932a2.91 2.91 0 00-.662 1.859c.002 2.386.898 4.674 2.492 6.362 1.594 1.687 3.755 2.636 6.008 2.638.647 0 1.27-.249 1.756-.7a2.866 2.866 0 00.88-1.754l-3.114-1.406-1.66 1.174a1.012 1.012 0 01-1.043.077 6.333 6.333 0 01-2.842-2.995 1.182 1.182 0 01.067-1.104L6.84 6.131 5.505 2.833z"/></svg><svg viewBox="0 0 24 36" id="rate" xmlns="http://www.w3.org/2000/svg"><path fill-rule="evenodd" clip-rule="evenodd" d="M18.067 13.325a.415.415 0 00-.416.417v12.871h-4.574l4.018-4.456a.415.415 0 00-.308-.693h-6.725l3.056-8.352a.414.414 0 00-.698-.421L9.24 16.218V13.74a.416.416 0 00-.416-.415h-4.66L13.445 1.6l9.282 11.725h-4.66zM8.124 26.76L5.6 33.66l10.254-11.365H9.468a.415.415 0 01-.39-.557l2.526-6.902L1.349 26.201h6.386a.416.416 0 01.39.558zM13.772.673a.416.416 0 00-.652 0L2.98 13.483a.415.415 0 00.325.673h5.103v2.982l-8.3 9.2a.415.415 0 00.308.694H7.14l-3.057 8.353a.415.415 0 00.699.421l7.544-8.363h5.74c.23 0 .415-.186.415-.416V14.156h5.103a.416.416 0 00.326-.673L13.77.673z"/></svg><svg viewBox="0 0 18 18" id="trash" xmlns="http://www.w3.org/2000/svg"><g clip-path="url(#lclip0_701_36)"><path d="M11.483 6.521a.422.422 0 00-.422.422v7.967a.422.422 0 00.843 0V6.943a.422.422 0 00-.421-.422zM6.508 6.521a.422.422 0 00-.421.422v7.967a.422.422 0 00.843 0V6.943a.422.422 0 00-.422-.422z"/><path d="M2.883 5.359v10.386c0 .614.225 1.19.618 1.604.392.414.937.65 1.507.65h7.975a2.075 2.075 0 001.507-.65c.393-.414.618-.99.618-1.604V5.359a1.61 1.61 0 00-.413-3.167h-2.159v-.527A1.656 1.656 0 0010.867 0H7.124a1.656 1.656 0 00-1.67 1.665v.527H3.297a1.61 1.61 0 00-.413 3.167zm10.1 11.798H5.008c-.721 0-1.282-.62-1.282-1.412V5.395h10.539v10.35c0 .793-.56 1.412-1.282 1.412zM6.298 1.665a.811.811 0 01.826-.822h3.743a.812.812 0 01.826.822v.527H6.298v-.527zm-3.002 1.37h11.399a.759.759 0 110 1.518H3.296a.759.759 0 110-1.518z"/><path d="M8.996 6.521a.422.422 0 00-.422.422v7.967a.422.422 0 00.843 0V6.943a.422.422 0 00-.421-.422z"/></g><defs><clipPath id="lclip0_701_36"><path d="M0 0h18v18H0z"/></clipPath></defs></svg><svg viewBox="0 0 20 21" id="turn" xmlns="http://www.w3.org/2000/svg"><path d="M10.004 9.42c.51 0 .921-.412.921-.922V.953a.922.922 0 10-1.843 0v7.545c0 .51.413.922.922.922z"/><path d="M15.344 3.892a.92.92 0 10-1.061 1.506 7.455 7.455 0 013.165 6.083c0 4.105-3.34 7.443-7.444 7.443-4.105 0-7.444-3.338-7.444-7.443a7.454 7.454 0 013.165-6.083.921.921 0 10-1.062-1.506 9.3 9.3 0 00-3.946 7.59c0 5.12 4.166 9.286 9.286 9.286 5.121 0 9.287-4.166 9.287-9.287a9.299 9.299 0 00-3.946-7.59z"/></svg><svg viewBox="0 0 24 24" id="up" xmlns="http://www.w3.org/2000/svg"><g clip-path="url(#nclip0_701_29)"><path d="M7.14 8.075v-.5H4.57L12 .54l7.431 7.035H16.86v7.239H7.14V8.075zM7.14 20.157h9.72v.448H7.14v-.448zM16.86 17.709H7.14v-.448h9.72v.448zM7.14 23.052h9.72v.448H7.14v-.448z"/></g><defs><clipPath id="nclip0_701_29"><path transform="rotate(90 12 12)" d="M0 0h24v24H0z"/></clipPath></defs></svg><svg viewBox="0 0 24 24" id="user" xmlns="http://www.w3.org/2000/svg"><path d="M13 11a3 3 0 100-5.999A3 3 0 0013 11zm0-4a1 1 0 110 2 1 1 0 010-2zm4.11 3.86a5 5 0 000-5.72A2.91 2.91 0 0118 5a3 3 0 010 6 2.91 2.91 0 01-.89-.14zM13 13c-6 0-6 4-6 4v2h12v-2s0-4-6-4zm-4 4c0-.29.32-2 4-2 3.5 0 3.94 1.56 4 2m7 0v2h-3v-2a5.601 5.601 0 00-1.8-3.94C24 13.55 24 17 24 17zM8 12H5v3H3v-3H0v-2h3V7h2v3h3v2z"/></svg><svg viewBox="0 0 24 24" id="user-card" xmlns="http://www.w3.org/2000/svg"><path d="M22 3H2c-1.09.04-1.96.91-2 2v14c.04 1.09.91 1.96 2 2h20c1.09-.04 1.96-.91 2-2V5a2.074 2.074 0 00-2-2zm0 16H2V5h20v14zm-8-2v-1.25c0-1.66-3.34-2.5-5-2.5-1.66 0-5 .84-5 2.5V17h10zM9 7a2.5 2.5 0 100 5 2.5 2.5 0 000-5zm5 0v1h6V7h-6zm0 2v1h6V9h-6zm0 2v1h4v-1h-4z"/></svg><svg viewBox="0 0 16 18" id="verif" xmlns="http://www.w3.org/2000/svg"><path fill-rule="evenodd" clip-rule="evenodd" d="M.3 1.65C.3.739 1.039 0 1.95 0h12.1c.911 0 1.65.739 1.65 1.65v6.236c0 1.056-.016 2.3-.566 3.375-.49.955-1.257 1.817-2.354 2.78-1.095.961-2.555 2.052-4.454 3.452a.55.55 0 01-.652 0c-1.9-1.4-3.359-2.49-4.454-3.452-1.097-.963-1.865-1.825-2.353-2.78C.317 10.186.3 8.942.3 7.886V1.65zm10.818 4.259a.55.55 0 00-.736-.818L7.083 8.06 5.618 6.741a.55.55 0 00-.736.818l1.834 1.65a.55.55 0 00.735 0l3.667-3.3z"/></svg><svg viewBox="0 0 29 29" id="wallet" xmlns="http://www.w3.org/2000/svg"><g clip-path="url(#rclip0_650_24)"><path d="M27.683 14.622v-4.076a2.63 2.63 0 00-2.426-2.615l-3.785-6.612a2.605 2.605 0 00-3.579-.964L4.917 7.91H2.638a2.639 2.639 0 00-2.636 2.637v15.818A2.639 2.639 0 002.638 29h22.409a2.639 2.639 0 002.636-2.636v-4.076a1.974 1.974 0 001.318-1.856v-3.954c0-.859-.552-1.583-1.318-1.856zm-3.958-6.713H17.98l4.309-2.508 1.436 2.508zm-2.09-3.652L15.36 7.91h-2.602l8.224-4.788.651 1.136zm-3.079-2.763a1.292 1.292 0 011.77.48l.002.003L10.14 7.909H7.537l11.02-6.415zm7.81 24.87a1.32 1.32 0 01-1.32 1.318H2.639a1.32 1.32 0 01-1.318-1.318V10.546a1.32 1.32 0 011.318-1.318h22.409a1.32 1.32 0 011.318 1.318V14.5h-3.954a3.959 3.959 0 00-3.955 3.955 3.959 3.959 0 003.955 3.954h3.954v3.955zm1.317-5.932a.66.66 0 01-.659.66h-4.613a2.639 2.639 0 01-2.637-2.637 2.639 2.639 0 012.637-2.637h4.613a.66.66 0 01.66.66v3.954z"/><path d="M22.41 17.137a1.32 1.32 0 00-1.32 1.318 1.32 1.32 0 001.32 1.318 1.32 1.32 0 001.317-1.318 1.32 1.32 0 00-1.318-1.318z"/></g><defs><clipPath id="rclip0_650_24"><path d="M0 0h29v29H0z"/></clipPath></defs></svg></svg>