<svg width="32" height="32" viewBox="0 0 32 32" fill="none" xmlns="http://www.w3.org/2000/svg">
<g filter="url(#filter0_d_662_183)">
<path d="M5.33347 9.06652H9.06686L9.06669 20.2665C9.06794 21.2563 9.46168 22.2053 10.1617 22.9051C10.8615 23.6049 11.8102 23.9987 12.8001 23.9999H22.9336C24.0646 23.9987 25.1493 23.5487 25.9491 22.7489C26.7489 21.949 27.1989 20.8644 27.2002 19.7333V18.1333C27.2002 17.9919 27.1439 17.8562 27.0439 17.7562C26.9439 17.6562 26.8082 17.5999 26.6668 17.5999H25.0668V5.3334C25.0655 4.34359 24.6718 3.39466 23.972 2.69482C23.2721 1.99498 22.3232 1.60124 21.3336 1.60001H7.46659C6.75962 1.6009 6.08195 1.88215 5.58193 2.38195C5.08209 2.88197 4.80086 3.55964 4.79999 4.26661V8.5334C4.79999 8.67483 4.85624 8.81036 4.95624 8.91054C5.05624 9.01054 5.19195 9.06662 5.33338 9.06662L5.33347 9.06652ZM26.1335 19.7335C26.1326 20.5819 25.7951 21.3953 25.1953 21.9953C24.5953 22.5951 23.7819 22.9326 22.9335 22.9335H16.1527C17.073 22.1248 17.6005 20.9587 17.6002 19.7335V18.6667H26.1337L26.1335 19.7335ZM24.0001 5.33349V17.6H17.0666C16.7721 17.6 16.5334 17.8388 16.5334 18.1334V19.7334C16.5325 20.5818 16.195 21.3952 15.5952 21.9952C14.9952 22.595 14.1818 22.9325 13.3334 22.9334H12.8C12.093 22.9325 11.4152 22.6513 10.9153 22.1515C10.4153 21.6514 10.1341 20.9736 10.1334 20.2667V4.26666C10.1314 3.68773 9.93909 3.12558 9.58604 2.66666H21.3332C22.0402 2.66755 22.7179 2.9488 23.2179 3.4486C23.7177 3.94862 23.999 4.62647 23.9998 5.3334L24.0001 5.33349ZM5.86659 4.2667C5.86659 3.69509 6.17159 3.16686 6.66659 2.88115C7.16177 2.59526 7.7716 2.59526 8.26659 2.88115C8.76177 3.16686 9.06659 3.69509 9.06659 4.2667V8.0001H5.86659V4.2667Z" fill="#4926E8"/>
<path d="M14.7224 15.6399C14.6748 15.6226 14.6257 15.5786 14.6063 15.5358C14.5896 15.499 14.5885 15.4616 14.5884 14.8396L14.5882 14.1823H13.8292C12.9996 14.1823 13.0333 14.1845 12.9735 14.1276C12.9587 14.1137 12.9386 14.0864 12.9287 14.0672C12.9117 14.0341 12.9108 14.0061 12.9108 13.5557C12.9108 13.1469 12.9128 13.0741 12.9253 13.0442C12.944 12.9995 12.9719 12.9699 13.019 12.9445C13.0566 12.9243 13.0591 12.9242 13.8224 12.9215L14.5881 12.9187V12.1467H13.0652L13.0156 12.1219C12.9834 12.1058 12.9572 12.0839 12.9407 12.059L12.9154 12.0208L12.9125 11.4688C12.9096 10.8469 12.9068 10.8646 12.9788 10.8038C13.0001 10.7856 13.0327 10.7665 13.0511 10.7613C13.072 10.7555 13.3692 10.7519 13.8363 10.7519L14.5879 10.7518L14.5881 8.66201C14.5883 6.64958 14.5888 6.57087 14.6057 6.53394C14.6264 6.48849 14.6831 6.43889 14.7292 6.42605C14.7753 6.41331 18.4205 6.41377 18.6023 6.42661C19.1723 6.46679 19.6639 6.62519 20.0772 6.90183C20.2573 7.02237 20.3465 7.09552 20.5021 7.2506C20.862 7.60916 21.0868 8.00467 21.2073 8.49096C21.2814 8.79022 21.3013 8.98558 21.2948 9.35236C21.291 9.52684 21.2844 9.66483 21.2747 9.73402C21.1825 10.3902 20.9293 10.9004 20.4768 11.3411C20.2632 11.5491 20.0529 11.6987 19.7899 11.8297C19.487 11.9806 19.2069 12.0642 18.8179 12.1199C18.6762 12.1402 18.6469 12.1407 17.3868 12.1458L16.1005 12.1511L16.0947 12.9188L19.4647 12.9238L19.5114 12.9479C19.5397 12.9625 19.5693 12.9879 19.5866 13.0123L19.615 13.0527L19.6178 13.5301C19.6198 13.8574 19.6175 14.0187 19.6102 14.0431C19.598 14.0848 19.5534 14.1386 19.5122 14.1612C19.485 14.1761 19.3599 14.1776 17.7913 14.1819L16.0998 14.1866L16.094 14.851C16.0883 15.4575 16.0883 15.518 16.073 15.5452C16.0513 15.5849 15.9975 15.6281 15.9534 15.6414C15.9018 15.6568 14.7633 15.6551 14.7203 15.6394L14.7224 15.6399ZM18.4063 10.742C18.6844 10.7138 18.9298 10.631 19.1275 10.4983C19.5663 10.2039 19.7764 9.74638 19.7419 9.16081C19.7291 8.9444 19.6852 8.77619 19.5924 8.58906C19.5228 8.44839 19.4436 8.34254 19.3175 8.22126C19.0679 7.98138 18.7689 7.85485 18.372 7.82104C18.2891 7.81402 17.903 7.81152 17.1752 7.81346L16.1008 7.81614L16.0951 10.7517H17.2014C17.9041 10.7517 18.3433 10.7481 18.4054 10.7418L18.4063 10.742Z" fill="#4926E8"/>
</g>
<defs>
<filter id="filter0_d_662_183" x="-4" y="0" width="40" height="40" filterUnits="userSpaceOnUse" color-interpolation-filters="sRGB">
<feFlood flood-opacity="0" result="BackgroundImageFix"/>
<feColorMatrix in="SourceAlpha" type="matrix" values="0 0 0 0 0 0 0 0 0 0 0 0 0 0 0 0 0 0 127 0" result="hardAlpha"/>
<feOffset dy="4"/>
<feGaussianBlur stdDeviation="2"/>
<feComposite in2="hardAlpha" operator="out"/>
<feColorMatrix type="matrix" values="0 0 0 0 0 0 0 0 0 0 0 0 0 0 0 0 0 0 0.25 0"/>
<feBlend mode="normal" in2="BackgroundImageFix" result="effect1_dropShadow_662_183"/>
<feBlend mode="normal" in="SourceGraphic" in2="effect1_dropShadow_662_183" result="shape"/>
</filter>
</defs>
</svg>
