<svg width="30" height="30" viewBox="0 0 30 30" fill="none" xmlns="http://www.w3.org/2000/svg">
<path fill-rule="evenodd" clip-rule="evenodd" d="M15 3C15.3459 3 15.6669 3.17863 15.8494 3.47241L18.6748 8.02127L24.197 9.13119C24.5547 9.20301 24.8448 9.464 24.9542 9.81223C25.0633 10.1603 24.9742 10.5403 24.7218 10.8036L20.9858 14.7001L21.5562 19.891C21.5949 20.2422 21.4452 20.5878 21.1627 20.7999C20.8802 21.012 20.5067 21.0593 20.1801 20.9244L15 18.7827L9.81982 20.9244C9.49337 21.0593 9.11971 21.012 8.83728 20.7999C8.55469 20.5877 8.40519 20.2422 8.4437 19.891L9.01408 14.7001L5.27814 10.8036C5.02569 10.5403 4.93662 10.1603 5.04594 9.81223C5.15509 9.46401 5.44521 9.20301 5.80297 9.13119L11.3251 8.02127L14.1505 3.47241C14.333 3.17861 14.6541 3 14.9999 3H15ZM15 5.89521L12.7957 9.444C12.65 9.67838 12.414 9.84227 12.1433 9.89666L7.98144 10.7332L10.7809 13.653C10.9856 13.8667 11.0854 14.1601 11.0529 14.4543L10.6162 18.4308L14.6179 16.7761C14.8625 16.675 15.1374 16.675 15.382 16.7761L19.3838 18.4308L18.947 14.4543C18.9147 14.1601 19.0143 13.8666 19.2192 13.653L22.0185 10.7332L17.8567 9.89666C17.586 9.84225 17.3499 9.67835 17.2043 9.444L15 5.89521Z" fill="#4926E8"/>
</svg>
