<svg width="16" height="18" viewBox="0 0 16 18" fill="none" xmlns="http://www.w3.org/2000/svg">
<path fill-rule="evenodd" clip-rule="evenodd" d="M0.300049 1.64991C0.300049 0.738606 1.03875 -9.15527e-05 1.95005 -9.15527e-05H14.0501C14.9614 -9.15527e-05 15.7001 0.738606 15.7001 1.64991V7.88628C15.7001 8.94244 15.6835 10.1861 15.1337 11.2605C14.6448 12.2158 13.8769 13.0784 12.7799 14.0412C11.6845 15.0023 10.2253 16.0933 8.32644 17.4926C8.13234 17.6355 7.86789 17.6355 7.67379 17.4926C5.77481 16.0933 4.31533 15.0023 3.22036 14.0412C2.12331 13.0784 1.35539 12.2158 0.866518 11.2605C0.316769 10.186 0.300174 8.94234 0.300174 7.88628L0.300049 1.64991ZM11.1181 5.90879C11.3438 5.70561 11.3621 5.35782 11.159 5.13204C10.9558 4.90627 10.608 4.88798 10.3822 5.09116L7.08346 8.06005L5.6181 6.74115C5.39233 6.53798 5.04453 6.55627 4.84135 6.78204C4.63817 7.00781 4.65646 7.35561 4.88223 7.55879L6.71565 9.20879C6.92472 9.397 7.24233 9.397 7.45139 9.20879L11.1181 5.90879Z" fill="#46E356"/>
</svg>
