<svg width="22" height="20" viewBox="0 0 22 20" fill="none" xmlns="http://www.w3.org/2000/svg">
<path d="M16.4459 19.4483C15.0401 19.4485 13.5831 18.7619 12.2171 17.397L1.67207 6.82503C1.24986 6.40316 0.739588 5.62572 0.57686 4.71115C0.436905 3.92365 0.501692 2.75326 1.6071 1.64785C2.73999 0.513806 3.86816 0.414034 4.61546 0.530391C5.6931 0.697633 6.46869 1.37549 6.75197 1.65856L17.3437 12.2756C17.6338 12.5652 18.3155 13.2457 18.3155 14.1678C18.3155 14.7296 18.0674 15.2621 17.5777 15.7507C17.141 16.1885 15.9406 17.028 14.2615 15.3517L3.68735 4.78574C3.45263 4.55153 3.45263 4.17151 3.68684 3.93729C3.92139 3.70242 4.30141 3.70275 4.53529 3.93679L15.1094 14.5024C16.1214 15.5119 16.5636 15.0682 16.7296 14.9018C16.9863 14.646 17.1159 14.3991 17.1159 14.1674C17.1159 13.743 16.6968 13.3248 16.4954 13.1239L5.9037 2.50645C5.70398 2.30672 5.15992 1.82909 4.43182 1.71595C3.74559 1.60931 3.07997 1.87164 2.45636 2.49591C1.8624 3.08986 1.62784 3.76439 1.75894 4.50081C1.87295 5.14216 2.24092 5.69643 2.5215 5.97655L13.0665 16.549C14.2759 17.7572 16.6653 19.4259 19.0716 17.0204C20.1747 15.9173 20.5184 14.7642 20.1226 13.4951C19.8754 12.7013 19.3284 11.8661 18.5413 11.0797L9.33943 1.92068C9.10455 1.68697 9.10372 1.30696 9.33759 1.07223C9.57129 0.837522 9.95096 0.836352 10.186 1.07039L19.3879 10.2298C20.3128 11.1542 20.9625 12.1594 21.2674 13.1376C21.6342 14.3138 21.6981 16.0899 19.9192 17.869C18.8642 18.9242 17.6744 19.4485 16.4456 19.4485L16.4459 19.4483Z" fill="#5956FF"/>
</svg>
