<svg width="25" height="25" viewBox="0 0 25 25" fill="none" xmlns="http://www.w3.org/2000/svg">
<path d="M20.675 4.4L21.3166 2.41661L21.3167 2.41675C21.395 2.18154 21.3986 1.92789 21.3271 1.69075C21.2553 1.45345 21.1121 1.24418 20.9168 1.09171C20.7265 0.939788 20.4938 0.850224 20.2508 0.835295C20.0076 0.820368 19.7658 0.880774 19.5584 1.00843L14.0584 4.40004H3.33337V19.1668H21.6669V4.40004L20.675 4.4ZM20.0001 17.5H5.00005V6.06679H14.5333L19.3415 3.10015L18.3832 6.06679H19.9998L20.0001 17.5Z" fill="#4926E8"/>
<path d="M7.83321 10.8332C7.52378 10.8332 7.22703 10.9561 7.00828 11.175C6.78953 11.3938 6.66663 11.6905 6.66663 11.9999C6.66663 12.3094 6.78953 12.6061 7.00828 12.8249C7.22703 13.0438 7.52378 13.1667 7.83321 13.1667C8.14264 13.1667 8.43939 13.0438 8.65828 12.8249C8.87703 12.6061 8.99994 12.3094 8.99994 11.9999C8.99994 11.6905 8.87703 11.3938 8.65828 11.175C8.43939 10.9561 8.14264 10.8332 7.83321 10.8332Z" fill="#4926E8"/>
<path d="M12.5 10.8332C12.1905 10.8332 11.8938 10.9561 11.675 11.175C11.4562 11.3938 11.3333 11.6905 11.3333 11.9999C11.3333 12.3094 11.4562 12.6061 11.675 12.8249C11.8938 13.0438 12.1905 13.1667 12.5 13.1667C12.8094 13.1667 13.1062 13.0438 13.3249 12.8249C13.5438 12.6061 13.6667 12.3094 13.6667 11.9999C13.6667 11.6905 13.5438 11.3938 13.3249 11.175C13.1062 10.9561 12.8094 10.8332 12.5 10.8332Z" fill="#4926E8"/>
<path d="M17.1668 10.8332C16.8574 10.8332 16.5606 10.9561 16.3417 11.175C16.123 11.3938 16.0001 11.6905 16.0001 11.9999C16.0001 12.3094 16.123 12.6061 16.3417 12.8249C16.5606 13.0438 16.8574 13.1667 17.1668 13.1667C17.4762 13.1667 17.773 13.0438 17.9917 12.8249C18.2105 12.6061 18.3334 12.3094 18.3334 11.9999C18.3334 11.6905 18.2105 11.3938 17.9917 11.175C17.773 10.9561 17.4762 10.8332 17.1668 10.8332Z" fill="#4926E8"/>
</svg>
