<svg width="28" height="28" viewBox="0 0 28 28" fill="none" xmlns="http://www.w3.org/2000/svg">
<path d="M7.17918 6.0792H13.3756C13.61 6.0792 13.8267 5.9542 13.9439 5.75107C14.061 5.5481 14.061 5.29795 13.9439 5.09483C13.8267 4.89186 13.61 4.76671 13.3756 4.76671H7.17918C6.94481 4.76671 6.7281 4.89186 6.6109 5.09483C6.49371 5.29796 6.49371 5.54811 6.6109 5.75107C6.72809 5.9542 6.94481 6.0792 7.17918 6.0792Z" fill="#4926E8"/>
<path d="M7.17918 8.45319H17.1736C17.408 8.45319 17.6247 8.32803 17.7419 8.12507C17.8591 7.92194 17.8591 7.67179 17.7419 7.46883C17.6247 7.2657 17.408 7.1407 17.1736 7.1407H7.17918C6.94481 7.1407 6.7281 7.2657 6.6109 7.46883C6.49371 7.67179 6.49371 7.92195 6.6109 8.12507C6.72809 8.32803 6.94481 8.45319 7.17918 8.45319Z" fill="#4926E8"/>
<path d="M7.17918 10.8268H17.1736C17.408 10.8268 17.6247 10.7018 17.7419 10.4987C17.8591 10.2957 17.8591 10.0456 17.7419 9.84244C17.6247 9.63947 17.408 9.51431 17.1736 9.51431H7.17918C6.94481 9.51431 6.7281 9.63947 6.6109 9.84244C6.49371 10.0456 6.49371 10.2957 6.6109 10.4987C6.72809 10.7018 6.94481 10.8268 7.17918 10.8268Z" fill="#4926E8"/>
<path d="M7.17918 13.2008H17.1736C17.408 13.2008 17.6247 13.0756 17.7419 12.8727C17.8591 12.6695 17.8591 12.4194 17.7419 12.2164C17.6247 12.0133 17.408 11.8883 17.1736 11.8883H7.17918C6.94481 11.8883 6.7281 12.0133 6.6109 12.2164C6.49371 12.4194 6.49371 12.6695 6.6109 12.8727C6.72809 13.0756 6.94481 13.2008 7.17918 13.2008Z" fill="#4926E8"/>
<path d="M19.386 17.2792C19.2119 17.2792 19.0451 17.3483 18.9219 17.4714C18.799 17.5943 18.7297 17.7614 18.7297 17.9355V19.6098V19.6097C18.7297 19.8442 18.8549 20.0607 19.0579 20.1781C19.261 20.2953 19.5111 20.2953 19.7141 20.1781C19.9172 20.0608 20.0422 19.8442 20.0422 19.6097V17.9355C20.0422 17.7614 19.9732 17.5944 19.85 17.4714C19.7269 17.3483 19.56 17.2792 19.386 17.2792L19.386 17.2792Z" fill="#4926E8"/>
<path d="M19.386 15.5664C19.2119 15.5664 19.0451 15.6355 18.9219 15.7586C18.799 15.8817 18.7297 16.0486 18.7297 16.2227V16.4839C18.7297 16.7183 18.8549 16.935 19.0579 17.0522C19.261 17.1694 19.5111 17.1694 19.7141 17.0522C19.9172 16.935 20.0422 16.7183 20.0422 16.4839V16.2227C20.0422 16.0486 19.9732 15.8817 19.85 15.7586C19.7269 15.6355 19.56 15.5664 19.386 15.5664H19.386Z" fill="#4926E8"/>
<path d="M19.7288 13.9408V1.14999C19.7288 0.975929 19.6596 0.809057 19.5366 0.686073C19.4135 0.562949 19.2466 0.493729 19.0725 0.493729H5.28011C5.10604 0.493729 4.93917 0.562949 4.81603 0.686073C4.69306 0.809041 4.62384 0.975917 4.62384 1.14999V17.3528C4.62384 17.525 4.69134 17.6901 4.81196 17.813L7.67276 20.7223C7.79604 20.8478 7.96464 20.9184 8.14056 20.9184H16.7614C17.7238 21.76 19.0314 22.0892 20.2776 21.8039C21.5238 21.5184 22.5578 20.653 23.0581 19.4764C23.5586 18.3 23.4646 16.9548 22.8057 15.8592C22.1468 14.7635 21.0026 14.0501 19.7289 13.9406L19.7288 13.9408ZM18.4163 1.80639V14.0456C17.2604 14.3351 16.2943 15.1262 15.7825 16.2023C15.271 17.2784 15.2671 18.527 15.7722 19.6062H8.79702V17.3531C8.79702 17.179 8.72796 17.0122 8.60484 16.8892C8.48187 16.7661 8.31484 16.6968 8.14076 16.6968H5.9364V1.80645L18.4163 1.80639ZM7.4847 18.6588L6.84594 18.0091H7.4847V18.6588ZM19.3863 20.5935L19.3861 20.5936C18.676 20.5936 17.9951 20.3114 17.4929 19.8094C16.9907 19.3072 16.7087 18.6261 16.7087 17.9161C16.7087 17.206 16.9907 16.5249 17.4929 16.0229C17.9951 15.5207 18.676 15.2387 19.3861 15.2387C20.0963 15.2387 20.7772 15.5207 21.2794 16.0229C21.7816 16.5249 22.0636 17.206 22.0636 17.9161C22.0628 18.626 21.7805 19.3066 21.2786 19.8085C20.7766 20.3105 20.096 20.5929 19.3861 20.5938L19.3863 20.5935Z" fill="#4926E8"/>
</svg>
