<svg width="21" height="17" viewBox="0 0 21 17" fill="none" xmlns="http://www.w3.org/2000/svg">
<path d="M13.9128 4.22068L10.5647 11.1327L7.25994 4.22068L4.5167 12.5583H4.0415V13.487H6.82798V12.6014H6.39602L7.7567 8.8646L10.2191 13.487H10.8887L13.3512 8.8214L14.7336 12.5583H14.2367V13.487H17.088V12.5583H16.5912L13.9128 4.22068Z" fill="#4926E8"/>
<path d="M10.5 0.591839C7.88629 0.591839 5.42397 1.6286 3.58797 3.4862C1.77361 5.3438 0.77993 7.7846 0.801491 10.355C0.801491 12.6013 1.60065 14.8046 3.04781 16.5542C3.13415 16.6622 3.24218 16.7055 3.37175 16.7055H6.22303C8.40459 16.7055 11.2126 16.727 13.5454 16.727C15.4463 16.727 17.0446 16.727 17.7574 16.7055C17.887 16.7055 17.995 16.6407 18.0814 16.5327C19.507 14.7614 20.2629 12.6015 20.2629 10.3335C20.2632 4.97665 15.8785 0.591854 10.5001 0.591854L10.5 0.591839ZM17.52 15.8414C15.6624 15.8847 9.76557 15.863 6.20157 15.8414H3.56637C2.33509 14.2862 1.64397 12.3423 1.64397 10.355C1.64397 8.00068 2.55128 5.77584 4.21441 4.09104C5.89921 2.40609 8.12401 1.45584 10.5 1.45584C15.4032 1.45584 19.3992 5.45184 19.3992 10.355C19.3992 12.3638 18.7513 14.2646 17.52 15.8414H17.52Z" fill="#4926E8"/>
</svg>
