<svg width="28" height="28" viewBox="0 0 28 28" fill="none" xmlns="http://www.w3.org/2000/svg">
<path d="M20.2628 14.6628C20.0225 14.8686 19.6944 14.9386 19.3911 14.8489C19.0877 14.7592 18.8505 14.522 18.7608 14.2186C18.6709 13.9153 18.7411 13.587 18.9469 13.3468L20.1508 12.1334H10.2668C9.93336 12.1334 9.62524 11.9556 9.45852 11.6668C9.2918 11.3781 9.2918 11.0222 9.45852 10.7334C9.62524 10.4447 9.93336 10.2668 10.2668 10.2668H20.1508L18.9375 9.06277C18.7008 8.82605 18.6083 8.48089 18.695 8.15761C18.7816 7.83417 19.0342 7.58153 19.3577 7.49497C19.6809 7.40825 20.0261 7.50075 20.2628 7.73747L23.0628 10.5375C23.2367 10.7123 23.3342 10.9489 23.3342 11.1954C23.3342 11.442 23.2367 11.6785 23.0628 11.8534L20.2628 14.6628Z" fill="#4926E8"/>
<path d="M16.8001 15.8668C17.0476 15.8668 17.2851 15.9651 17.4601 16.1401C17.6351 16.3151 17.7333 16.5526 17.7333 16.8001V19.6001C17.7333 19.8476 17.6351 20.0851 17.4601 20.2601C17.2851 20.4351 17.0476 20.5334 16.8001 20.5334H5.60006C5.35256 20.5334 5.11506 20.4351 4.94006 20.2601C4.76506 20.0851 4.66678 19.8476 4.66678 19.6001V2.80009C4.66678 2.55259 4.76506 2.31509 4.94006 2.14009C5.11506 1.96509 5.35254 1.86681 5.60006 1.86681H16.8001C17.0476 1.86681 17.2851 1.96509 17.4601 2.14009C17.6351 2.31509 17.7333 2.55257 17.7333 2.80009V5.60009C17.7333 5.93352 17.5555 6.24165 17.2668 6.40837C16.978 6.57509 16.6221 6.57509 16.3333 6.40837C16.0446 6.24165 15.8668 5.93353 15.8668 5.60009V3.73337H6.53318V18.667H15.8668V16.8002C15.8668 16.5527 15.9651 16.3152 16.1401 16.1402C16.3151 15.9652 16.5525 15.867 16.8001 15.867V15.8668Z" fill="#4926E8"/>
</svg>
