<svg width="22" height="22" viewBox="0 0 22 22" fill="none" xmlns="http://www.w3.org/2000/svg">
<g clip-path="url(#clip0_701_24)">
<path d="M16.531 -0.00012207L2.62518 13.9057L0 21.9999L8.0942 19.3747L22 5.4689L16.531 -0.00012207ZM20.177 5.4689L18.354 7.29193L14.7079 3.64591L16.5309 1.82287L20.177 5.4689ZM3.47888 15.4519L6.54801 18.521L5.17146 18.9675L3.03239 16.8284L3.47888 15.4519ZM4.10197 14.252L13.7964 4.55744L15.1637 5.92471L5.46919 15.6192L4.10197 14.252ZM6.38069 16.5307L16.0752 6.83612L17.4425 8.20339L7.74795 17.898L6.38069 16.5307ZM2.58599 18.205L3.79496 19.4139L2.00565 19.9942L2.58599 18.205Z" fill="white"/>
</g>
<defs>
<clipPath id="clip0_701_24">
<rect width="22" height="22" fill="white"/>
</clipPath>
</defs>
</svg>
