<svg width="17" height="18" viewBox="0 0 17 18" fill="none" xmlns="http://www.w3.org/2000/svg">
<path d="M11.6875 15.7499C6.41484 15.7499 2.125 11.2077 2.125 5.62491C2.12699 4.66729 2.45735 3.74303 3.05464 3.02395C3.65193 2.30487 4.47551 1.83992 5.37227 1.71553C5.60087 1.6887 5.8316 1.73966 6.031 1.86103C6.2304 1.9824 6.38811 2.16786 6.48125 2.39053L7.81602 5.68819C7.88525 5.85936 7.91301 6.04613 7.89678 6.23154C7.88054 6.41695 7.82082 6.59513 7.72305 6.74991L6.6207 8.53584C7.11987 9.60846 7.94235 10.4744 8.9582 10.9968L10.625 9.82256C10.771 9.71834 10.9397 9.65525 11.1152 9.63926C11.2906 9.62327 11.467 9.6549 11.6277 9.73116L14.7422 11.1374C14.9525 11.236 15.1277 11.403 15.2423 11.6141C15.3569 11.8253 15.405 12.0696 15.3797 12.3116C15.2622 13.2611 14.8231 14.1332 14.144 14.7656C13.4648 15.398 12.5919 15.7478 11.6875 15.7499ZM5.50508 2.8335C4.86422 2.92073 4.27537 3.25229 3.84877 3.76611C3.42217 4.27993 3.18707 4.94077 3.1875 5.62491C3.18926 8.01128 4.08536 10.2994 5.67903 11.9868C7.27271 13.6742 9.4337 14.623 11.6875 14.6249C12.3336 14.6254 12.9578 14.3764 13.443 13.9247C13.9283 13.473 14.2414 12.8496 14.3238 12.171L11.2094 10.7648L9.54922 11.939C9.39646 12.0459 9.2202 12.1092 9.03753 12.1228C8.85486 12.1363 8.67199 12.0996 8.50664 12.0163C7.26945 11.3826 6.2687 10.328 5.66445 9.021C5.58478 8.84652 5.54904 8.65322 5.56067 8.45981C5.5723 8.2664 5.63093 8.07946 5.73086 7.91709L6.83984 6.13116L5.50508 2.8335Z" fill="#FF005C"/>
</svg>
