<svg width="24" height="36" viewBox="0 0 24 36" fill="none" xmlns="http://www.w3.org/2000/svg">
<path fill-rule="evenodd" clip-rule="evenodd" d="M18.0668 13.3254C17.9565 13.3254 17.8505 13.3693 17.7726 13.4475C17.6947 13.5256 17.651 13.6316 17.6513 13.7419V26.6135H13.0766L17.0952 22.1573C17.2052 22.0354 17.2333 21.8603 17.1667 21.7104C17.1 21.5602 16.9512 21.4637 16.787 21.464H10.0616L13.1182 13.1115C13.1872 12.9248 13.1136 12.7154 12.943 12.6128C12.7727 12.5099 12.5534 12.5428 12.4203 12.6909L9.23859 16.2179V13.7414C9.23833 13.5121 9.05243 13.3262 8.82338 13.3262H4.1634L13.4454 1.59996L22.7268 13.3249L18.0668 13.3254ZM8.12448 26.7592L5.59978 33.6598L15.8539 22.2943H9.46844C9.33285 22.2946 9.20568 22.2285 9.1278 22.1174C9.04992 22.006 9.03153 21.8641 9.078 21.7366L11.604 14.8354L1.34859 26.2015H7.73456C7.87016 26.2017 7.99707 26.2679 8.07469 26.379C8.15232 26.49 8.17071 26.632 8.12423 26.7592H8.12448ZM13.7717 0.67349C13.6925 0.574159 13.5728 0.516449 13.4459 0.516449C13.3192 0.516449 13.1992 0.574159 13.1203 0.67349L2.97925 13.4836C2.88043 13.6085 2.86153 13.7791 2.93099 13.9223C3.00045 14.0658 3.146 14.1567 3.30534 14.1565H8.40789V17.1377L0.107062 26.3387C-0.00299704 26.4605 -0.0308319 26.6359 0.0358205 26.7858C0.102721 26.9357 0.251598 27.0325 0.415536 27.0322H7.14092L4.08429 35.3854C4.01611 35.5723 4.08991 35.7812 4.26023 35.8836C4.4303 35.9862 4.64939 35.9538 4.78269 35.8062L12.3272 27.4426H18.0668C18.2961 27.4426 18.482 27.2567 18.482 27.0274V14.1558L23.585 14.1556C23.7441 14.1556 23.8892 14.0644 23.9586 13.9214C24.0278 13.7782 24.0092 13.6078 23.9106 13.483L13.7717 0.67349Z" fill="#4926E8"/>
</svg>
