<svg width="18" height="18" viewBox="0 0 18 18" fill="none" xmlns="http://www.w3.org/2000/svg">
<g clip-path="url(#clip0_701_36)">
<path d="M11.4828 6.52133C11.25 6.52133 11.0613 6.71004 11.0613 6.94288V14.9101C11.0613 15.1428 11.25 15.3316 11.4828 15.3316C11.7157 15.3316 11.9044 15.1428 11.9044 14.9101V6.94288C11.9044 6.71004 11.7157 6.52133 11.4828 6.52133Z" fill="white"/>
<path d="M6.50846 6.52133C6.27562 6.52133 6.08691 6.71004 6.08691 6.94288V14.9101C6.08691 15.1428 6.27562 15.3316 6.50846 15.3316C6.7413 15.3316 6.93001 15.1428 6.93001 14.9101V6.94288C6.93001 6.71004 6.7413 6.52133 6.50846 6.52133Z" fill="white"/>
<path d="M2.88317 5.35866V15.7446C2.88317 16.3585 3.10827 16.935 3.50149 17.3486C3.8929 17.7634 4.43761 17.9989 5.00769 17.9999H12.9834C13.5537 17.9989 14.0984 17.7634 14.4896 17.3486C14.8829 16.935 15.108 16.3585 15.108 15.7446V5.35866C15.8896 5.15118 16.3961 4.39602 16.2916 3.59394C16.1868 2.79201 15.5036 2.19214 14.6948 2.19197H12.5365V1.66504C12.539 1.22193 12.3638 0.796429 12.0501 0.4834C11.7364 0.170535 11.3103 -0.0036817 10.8672 -5.90535e-05H7.12397C6.68085 -0.0036817 6.2547 0.170535 5.94101 0.4834C5.62732 0.796429 5.45212 1.22193 5.45459 1.66504V2.19197H3.29631C2.48748 2.19214 1.80428 2.79201 1.69955 3.59394C1.59499 4.39602 2.1015 5.15118 2.88317 5.35866ZM12.9834 17.1568H5.00769C4.28694 17.1568 3.72626 16.5377 3.72626 15.7446V5.39571H14.2649V15.7446C14.2649 16.5377 13.7042 17.1568 12.9834 17.1568ZM6.29768 1.66504C6.29488 1.44554 6.38116 1.23428 6.53694 1.07932C6.69255 0.924374 6.90431 0.839242 7.12397 0.84303H10.8672C11.0868 0.839242 11.2986 0.924374 11.4542 1.07932C11.61 1.23411 11.6962 1.44554 11.6934 1.66504V2.19197H6.29768V1.66504ZM3.29631 3.03506H14.6948C15.1139 3.03506 15.4536 3.37477 15.4536 3.79384C15.4536 4.21291 15.1139 4.55262 14.6948 4.55262H3.29631C2.87724 4.55262 2.53753 4.21291 2.53753 3.79384C2.53753 3.37477 2.87724 3.03506 3.29631 3.03506Z" fill="white"/>
<path d="M8.99564 6.52133C8.7628 6.52133 8.5741 6.71004 8.5741 6.94288V14.9101C8.5741 15.1428 8.7628 15.3316 8.99564 15.3316C9.22848 15.3316 9.41719 15.1428 9.41719 14.9101V6.94288C9.41719 6.71004 9.22848 6.52133 8.99564 6.52133Z" fill="white"/>
</g>
<defs>
<clipPath id="clip0_701_36">
<rect width="18" height="18" fill="white"/>
</clipPath>
</defs>
</svg>
