<svg width="20" height="21" viewBox="0 0 20 21" fill="none" xmlns="http://www.w3.org/2000/svg">
<path d="M10.0036 9.42016C10.5131 9.42016 10.9253 9.00753 10.9253 8.49846V0.953372C10.9253 0.444512 10.5131 0.0316696 10.0036 0.0316696C9.49515 0.0316696 9.08191 0.444302 9.08191 0.953372V8.49846C9.08211 9.00732 9.49515 9.41996 10.0036 9.41996V9.42016Z" fill="white"/>
<path d="M15.3444 3.89159C14.9286 3.59768 14.353 3.69773 14.0601 4.11398C13.7672 4.53023 13.8666 5.10536 14.2829 5.3983C16.2647 6.79469 17.4477 9.0686 17.4477 11.4813C17.4475 15.5857 14.1087 18.9245 10.0035 18.9245C5.8994 18.9245 2.5602 15.5855 2.5602 11.4813C2.5602 9.06876 3.74285 6.79443 5.72465 5.3983C6.1409 5.1054 6.24032 4.53024 5.94704 4.11398C5.65454 3.69772 5.07939 3.5983 4.66312 3.89159C2.19213 5.63255 0.717163 8.46991 0.717163 11.4814C0.717163 16.602 4.88267 20.7679 10.0031 20.7679C15.1241 20.7679 19.2901 16.6017 19.2901 11.4814C19.2903 8.47002 17.8151 5.63245 15.3438 3.89159H15.3444Z" fill="white"/>
</svg>
