<svg width="29" height="29" viewBox="0 0 29 29" fill="none" xmlns="http://www.w3.org/2000/svg">
<g clip-path="url(#clip0_650_24)">
<path d="M27.6833 14.6217V10.5458C27.6833 9.1637 26.6112 8.0397 25.2568 7.93071L21.4716 1.31931C21.1208 0.707847 20.5544 0.270815 19.8766 0.0893418C19.2021 -0.0908961 18.4967 0.00376435 17.893 0.355157L4.91713 7.90945H2.63817C1.18422 7.90945 0.00183105 9.09178 0.00183105 10.5458V26.3637C0.00183105 27.8177 1.18416 29.0001 2.63817 29.0001H25.0469C26.5009 29.0001 27.6833 27.8177 27.6833 26.3637V22.2878C28.4488 22.0148 29.0014 21.2901 29.0014 20.432V16.4775C29.0014 15.6194 28.4488 14.8947 27.6833 14.6217ZM23.7251 7.90945H17.9805L22.289 5.40107L23.7251 7.90945ZM21.6341 4.25718L15.3607 7.90945H12.7586L20.9834 3.12082L21.6341 4.25718ZM18.5565 1.49436C18.8545 1.31993 19.2027 1.27359 19.5355 1.36244C19.8721 1.45253 20.1528 1.67008 20.3272 1.97452L20.3285 1.97693L10.139 7.90945H7.53697L18.5565 1.49436ZM26.3651 26.3637C26.3651 27.0904 25.7736 27.6819 25.0469 27.6819H2.63817C1.91154 27.6819 1.32003 27.0904 1.32003 26.3637V10.5458C1.32003 9.81916 1.91154 9.22765 2.63817 9.22765H25.0469C25.7736 9.22765 26.3651 9.81916 26.3651 10.5458V14.5003H22.4106C20.2299 14.5003 18.4561 16.2741 18.4561 18.4548C18.4561 20.6354 20.2299 22.4092 22.4106 22.4092H26.3651V26.3637ZM27.6833 20.432C27.6833 20.7956 27.3878 21.0911 27.0242 21.0911H22.4106C20.9566 21.0911 19.7742 19.9088 19.7742 18.4548C19.7742 17.0008 20.9566 15.8184 22.4106 15.8184H27.0242C27.3878 15.8184 27.6833 16.1138 27.6833 16.4775V20.432Z" fill="#4926E8"/>
<path d="M22.4091 17.1368C21.6824 17.1368 21.0909 17.7283 21.0909 18.455C21.0909 19.1816 21.6824 19.7731 22.4091 19.7731C23.1357 19.7731 23.7272 19.1816 23.7272 18.455C23.7273 17.7283 23.1358 17.1368 22.4091 17.1368Z" fill="#4926E8"/>
</g>
<defs>
<clipPath id="clip0_650_24">
<rect width="29" height="29" fill="white"/>
</clipPath>
</defs>
</svg>
